<svg width="16" height="16" viewBox="0 0 16 16" fill="none" xmlns="http://www.w3.org/2000/svg">
<path d="M15.5357 1.83683C15.9771 1.38151 15.9067 0.70523 15.3755 0.326912C14.8443 -0.051405 14.0554 0.0088579 13.614 0.464178L8.32544 5.90458L3.03688 0.464178C2.59552 0.0088579 1.80653 -0.051405 1.27533 0.326912C0.744131 0.70523 0.673825 1.38151 1.11519 1.83683L6.69669 7.57855L1.11519 13.3203C0.673825 13.7756 0.744131 14.4519 1.27533 14.8302C1.80653 15.2085 2.59552 15.1482 3.03688 14.6929L8.32544 9.25252L13.614 14.6929C14.0554 15.1482 14.8443 15.2085 15.3755 14.8302C15.9067 14.4519 15.9771 13.7756 15.5357 13.3203L9.95419 7.57855L15.5357 1.83683Z" fill="white"/>
</svg>
